<svg height="512pt" viewBox="0 -31 512 511" width="512pt" xmlns="http://www.w3.org/2000/svg"><path d="m432.167969 322.898438-68.402344-64.394532-11.703125-95.28125-58.882812-40.285156-50.085938-122.4375-104.949219 66.675781-40.339843 141.101563-56.527344 62.226562-12.476563 164.386719h437.898438zm0 0" fill="#c6715a"/><path d="m432.167969 322.898438-68.402344-64.394532-11.703125-95.28125-58.882812-40.285156-37.179688-90.886719v402.839844h210.699219zm0 0" fill="#b35f49"/><path d="m0 419.890625h512v30h-512zm0 0" fill="#99503d"/><g fill="#b35f49"><path d="m455.4375 159.976562-52.539062 28.65625v67.683594l67.503906 14.539063 31.9375-78.898438zm0 0"/><path d="m394.726562 27.160156-59.121093 14.78125-5.628907 58.011719 41.617188 34.097656 54.773438-45.644531zm0 0"/><path d="m216.363281 246.402344 29.113281-7.25-12.941406-51.953125 73.652344-55.363281-13.007812-8.898438-5.890626-14.402344-88.492187 67.339844zm0 0"/><path d="m165.171875 388.59375 27.652344-11.628906-32.519531-77.332032-108.902344-40.273437-10.125 11.144531-1.261719 16.628906 97.679687 36.125zm0 0"/><path d="m315.023438 371.183594 28.179687 10.289062 16.183594-44.320312 53.113281-32.769532-22.621094-21.292968-55.105468 33.996094zm0 0"/></g><path d="m293.179688 122.9375-5.890626-14.402344-31.289062 23.8125v37.214844l50.1875-37.726562zm0 0" fill="#804231"/><path d="m256 419.890625h256v30h-256zm0 0" fill="#804231"/><path d="m315.023438 371.183594 28.179687 10.289062 16.183594-44.320312 53.113281-32.769532-22.621094-21.292968-55.105468 33.996094zm0 0" fill="#804231"/></svg>